<?xml version="1.0" standalone="no"?>
<!DOCTYPE svg PUBLIC "-//W3C//DTD SVG 20010904//EN"
 "http://www.w3.org/TR/2001/REC-SVG-20010904/DTD/svg10.dtd">
<svg version="1.0" xmlns="http://www.w3.org/2000/svg"
 width="736.000000pt" height="736.000000pt" viewBox="0 0 736.000000 736.000000"
 preserveAspectRatio="xMidYMid meet">

<g transform="translate(0.000000,736.000000) scale(0.100000,-0.100000)"
fill="#000000" stroke="none">
<path d="M0 3680 l0 -3680 3680 0 3680 0 0 3680 0 3680 -3680 0 -3680 0 0
-3680z m3246 3240 c10 0 14 -13 14 -43 0 -48 11 -66 87 -151 72 -81 93 -128
91 -202 -1 -49 -2 -52 -5 -16 -4 45 -23 59 -23 16 0 -39 -17 -20 -24 28 -8 51
-56 126 -101 157 -145 99 -339 74 -473 -61 -52 -52 -122 -172 -122 -210 0 -10
-7 -30 -16 -43 -9 -14 -13 -25 -9 -25 4 0 2 -7 -6 -16 -9 -11 -9 -18 -2 -22 6
-4 14 -29 18 -57 9 -60 -3 -56 -13 5 -4 24 -14 46 -21 48 -11 4 -12 -2 -6 -29
16 -70 22 -134 13 -137 -16 -7 -38 -61 -38 -97 0 -43 39 -129 76 -169 26 -28
27 -29 9 -42 -29 -21 -39 -18 -87 34 -92 98 -113 240 -55 365 15 32 37 71 50
87 15 17 27 48 31 78 27 203 176 380 396 468 59 24 163 45 188 38 8 -2 20 -4
28 -4z m1084 -17 c139 -38 290 -146 369 -264 44 -65 81 -169 81 -226 0 -24 11
-48 35 -80 57 -75 78 -144 73 -243 -5 -99 -24 -144 -88 -208 -45 -44 -58 -50
-78 -30 -9 9 -15 9 -24 0 -9 -9 -8 -12 8 -13 11 0 14 -3 6 -6 -10 -4 -10 -8
-1 -19 12 -15 -4 -14 -96 6 -22 5 -100 16 -173 26 -204 28 -306 7 -391 -79
-40 -40 -71 -114 -71 -170 0 -16 -11 -33 -34 -51 l-34 -26 -7 75 c-7 72 -5 88
25 205 15 57 65 127 107 148 145 74 390 49 597 -61 l59 -31 33 39 c48 58 74
116 74 168 0 45 -16 97 -30 97 -4 0 -15 -21 -25 -46 -9 -25 -19 -43 -21 -41
-4 3 16 68 33 107 3 8 6 18 5 22 -1 4 3 32 9 63 10 57 5 100 -12 90 -5 -4 -9
1 -9 10 0 9 -5 26 -12 38 -7 12 -13 31 -15 42 -2 11 -17 48 -33 83 -39 83
-120 164 -207 205 -61 29 -77 32 -158 32 -108 -1 -175 -26 -229 -86 -112 -123
-96 -275 32 -299 33 -7 34 -8 8 -9 -61 -2 -126 70 -126 139 0 17 -4 30 -10 30
-5 0 -10 -7 -10 -15 0 -8 -5 -15 -11 -15 -15 0 -3 84 17 122 8 15 44 60 79
100 64 70 94 131 81 164 -13 34 66 37 174 7z m-1047 -414 c6 -10 7 -24 2 -35
-8 -18 -9 -18 -12 3 -7 40 -29 48 -58 19 -21 -21 -25 -22 -25 -8 0 10 6 24 12
30 17 17 68 11 81 -9z m925 9 c7 -7 12 -28 11 -47 -1 -37 -3 -35 -13 12 -5 20
-12 27 -31 27 -20 0 -25 -5 -25 -26 0 -22 -2 -25 -15 -14 -30 25 -9 60 35 60
14 0 31 -5 38 -12z m-838 -83 c-19 -23 -65 -45 -92 -44 -20 1 -20 2 -3 6 43 9
76 27 86 45 6 11 13 17 16 14 3 -3 0 -13 -7 -21z m-210 -36 c0 -6 -7 -6 -20 1
-11 6 -20 15 -20 21 0 6 7 6 20 -1 11 -6 20 -15 20 -21z m1125 11 c-19 -21
-35 -26 -35 -12 0 5 10 14 23 20 31 15 32 14 12 -8z m-896 -3 c-2 -1 -13 -9
-24 -17 -19 -14 -19 -14 -6 3 7 9 18 17 24 17 6 0 8 -1 6 -3z m754 -44 c-7 -2
-21 -2 -30 0 -10 3 -4 5 12 5 17 0 24 -2 18 -5z m609 -55 c-2 -24 -8 -47 -13
-52 -5 -5 -6 8 -3 30 11 74 22 89 16 22z m-1879 -5 c-7 -2 -21 -2 -30 0 -10 3
-4 5 12 5 17 0 24 -2 18 -5z m1714 1 c-3 -3 -12 -4 -19 -1 -8 3 -5 6 6 6 11 1
17 -2 13 -5z m-1875 -244 c16 -36 37 -74 46 -85 17 -20 17 -20 -4 -2 -21 18
-77 129 -88 177 l-6 25 11 -25 c7 -14 25 -54 41 -90z m1991 75 c-3 -9 -8 -14
-10 -11 -3 3 -2 9 2 15 9 16 15 13 8 -4z m-1963 -27 c15 -21 17 -28 6 -19 -16
13 -41 51 -33 51 2 0 14 -15 27 -32z m1965 -67 c-21 -43 -29 -39 -8 4 9 19 18
33 21 31 2 -2 -4 -18 -13 -35z m-3633 -180 c22 -42 52 -84 64 -94 19 -15 22
-22 14 -37 -8 -15 -6 -21 7 -30 15 -9 14 -10 -7 -4 -14 3 -33 13 -43 22 -9 8
-20 13 -23 10 -6 -7 28 -78 57 -120 18 -24 17 -58 -1 -58 -15 0 -70 77 -94
132 -35 78 -46 146 -45 266 l1 107 14 -60 c8 -32 33 -93 56 -134z m5348 101
c-1 -96 -21 -212 -50 -277 -28 -64 -88 -138 -107 -131 -8 3 -11 2 -8 -3 3 -5
1 -12 -5 -16 -19 -12 -10 22 15 59 30 44 65 111 65 125 0 5 -32 -7 -72 -27
-46 -23 -91 -37 -125 -40 -37 -3 -53 -9 -53 -19 0 -23 -36 -86 -65 -116 l-28
-27 54 0 c30 0 72 5 94 11 22 6 47 11 55 11 8 0 22 6 30 12 13 10 13 9 1 -7
-8 -10 -20 -16 -28 -13 -7 3 -13 1 -13 -4 0 -4 -24 -17 -52 -27 -56 -19 -225
-26 -263 -10 -17 7 -12 12 35 38 93 51 130 97 130 164 l0 36 42 -4 c22 -2 60
0 82 4 44 8 67 2 45 -12 -20 -12 3 -11 38 2 15 6 36 17 45 26 19 17 13 44 -8
36 -9 -3 -2 9 15 28 46 50 101 162 108 219 9 74 23 50 23 -38z m-3115 32 c110
-30 161 -87 190 -213 10 -45 22 -81 27 -81 15 0 -13 118 -47 203 -4 9 -3 17 3
17 8 0 31 -26 115 -130 48 -59 93 -157 84 -183 -2 -6 -10 8 -19 33 -12 37 -19
45 -39 46 -14 0 -30 3 -37 8 -9 5 -12 -5 -12 -39 0 -26 -4 -44 -9 -40 -5 3
-12 -9 -14 -27 -3 -28 -4 -27 -6 12 -6 90 -17 100 -25 23 -5 -40 -12 -73 -16
-73 -19 0 -66 50 -67 71 -6 74 -27 124 -72 169 -83 82 -196 104 -402 76 -68
-10 -137 -21 -154 -26 -34 -10 -116 -21 -97 -14 19 8 14 24 -5 17 -32 -12 18
31 69 60 67 39 243 95 324 105 81 9 140 6 209 -14z m630 -91 c-20 -51 -47
-151 -47 -173 0 -31 -17 -53 -32 -42 -6 5 -26 8 -45 8 -32 -1 -36 -5 -57 -56
-28 -66 -30 -56 -6 22 13 40 41 86 97 157 74 95 106 124 90 84z m2341 -178
c-11 -8 -22 -12 -25 -9 -6 6 19 24 34 24 6 -1 1 -7 -9 -15z m-5101 -5 c-3 -5
-12 -10 -18 -10 -7 0 -6 4 3 10 19 12 23 12 15 0z m5060 0 c-3 -5 -12 -10 -18
-10 -7 0 -6 4 3 10 19 12 23 12 15 0z m-4970 -20 c17 -4 49 -5 71 -3 l41 4 6
-41 c8 -59 49 -112 117 -151 33 -19 60 -37 60 -41 0 -12 -110 -21 -177 -14
-62 6 -134 28 -161 49 -21 16 -8 17 43 2 26 -8 74 -15 105 -15 l57 0 -38 40
c-21 22 -44 58 -50 80 -11 38 -14 40 -50 40 -42 0 -111 28 -103 42 3 4 11 5
17 1 7 -4 5 1 -3 12 -14 17 -13 17 10 10 14 -4 39 -11 55 -15z m2007 -11 c21
-11 44 -19 53 -19 8 0 15 -6 15 -14 0 -7 17 -26 38 -42 20 -16 62 -55 93 -86
41 -43 62 -58 83 -58 20 0 32 -8 44 -30 9 -17 22 -28 28 -26 6 3 17 -1 24 -7
10 -10 11 -6 6 18 -4 17 -9 53 -11 80 l-4 50 23 -70 c22 -66 24 -68 27 -36 5
46 29 54 29 10 0 -42 11 -31 32 34 l18 52 -5 -66 c-5 -61 -3 -67 15 -72 14 -4
20 0 20 12 0 25 38 57 62 53 14 -3 45 21 101 76 45 43 101 89 124 100 22 12
43 26 45 32 1 5 19 13 38 16 32 7 34 6 21 -9 -7 -9 -19 -17 -25 -17 -15 0 -96
-61 -96 -73 0 -4 19 5 43 20 69 47 113 67 131 60 26 -10 8 -30 -21 -22 -16 4
-32 -1 -50 -15 -28 -22 -24 -26 10 -9 22 10 22 10 2 -6 -11 -9 -45 -35 -76
-59 -58 -45 -105 -101 -92 -109 5 -2 25 -7 46 -11 36 -7 47 -19 27 -31 -6 -3
-29 -34 -52 -68 -23 -34 -43 -56 -45 -50 -3 7 1 21 7 32 10 19 8 21 -20 21
-24 0 -30 -4 -30 -21 0 -11 5 -17 10 -14 6 3 10 1 10 -4 0 -6 -7 -11 -15 -11
-19 0 -29 -41 -21 -90 6 -35 2 -43 -44 -97 -27 -32 -50 -63 -50 -70 0 -6 -7
-18 -15 -27 -19 -19 -39 -120 -31 -158 3 -15 2 -28 -2 -28 -4 0 -13 36 -20 81
-7 45 -22 106 -34 136 l-20 54 27 87 c14 48 36 106 47 128 20 38 20 43 6 58
-20 20 -26 11 -34 -51 -4 -26 -13 -59 -20 -73 l-12 -25 -11 28 c-6 16 -11 38
-12 50 -1 12 -5 2 -10 -22 -10 -52 -17 -61 -30 -41 -13 19 -8 -25 11 -91 12
-42 11 -53 -8 -115 -12 -38 -27 -100 -32 -139 -6 -38 -12 -71 -14 -72 -2 -2
-6 34 -9 81 -6 80 -8 87 -57 159 -28 41 -58 78 -65 81 -9 3 -15 19 -15 41 0
32 -2 34 -19 23 -11 -7 -17 -16 -15 -20 13 -21 -16 -5 -30 17 -28 42 -115 105
-146 105 -66 0 -377 -127 -497 -203 l-43 -27 0 -66 c0 -73 -12 -77 -29 -9 -13
52 -9 52 -96 -14 -92 -70 -210 -186 -290 -286 -172 -214 -281 -433 -345 -690
-39 -156 -50 -257 -50 -437 0 -279 50 -502 170 -754 96 -204 224 -380 380
-527 82 -78 195 -167 211 -167 5 0 9 12 9 26 0 32 20 113 30 119 4 2 7 -26 7
-63 -1 -107 12 -132 91 -174 37 -20 76 -45 87 -56 11 -10 26 -17 32 -15 6 2
33 -7 60 -20 26 -13 78 -34 115 -46 59 -20 73 -21 105 -10 75 24 131 59 177
110 44 49 48 51 60 33 12 -15 11 -22 -1 -40 -8 -13 -21 -20 -28 -18 -8 4 -41
-21 -79 -59 -36 -36 -60 -67 -54 -69 14 -5 -80 -77 -139 -107 -47 -24 -48 -24
-32 -53 8 -15 17 -18 37 -13 l27 7 -25 -19 c-83 -63 -224 -104 -365 -107 -113
-2 -219 28 -248 69 -12 16 -24 32 -28 35 -3 3 -14 20 -24 39 -19 37 -10 51 31
51 11 0 42 14 68 31 44 27 50 29 65 15 30 -27 145 -74 211 -86 87 -16 181 -3
270 37 l34 16 -24 10 c-14 5 -68 13 -120 17 -137 11 -201 38 -273 114 -31 33
-63 67 -70 74 -30 32 -178 132 -187 127 -6 -4 -9 -2 -8 3 2 5 -18 28 -44 51
-33 30 -49 38 -54 29 -4 -7 -4 -10 0 -7 9 8 62 -39 54 -47 -9 -8 -199 177
-192 187 3 5 1 8 -4 7 -12 -4 -115 126 -183 229 -54 83 -130 234 -179 359 -32
79 -100 340 -100 381 0 16 -6 23 -20 23 -24 0 -26 16 -4 28 19 10 16 68 -3 64
-7 -1 -13 2 -13 8 0 5 5 10 10 10 6 0 10 47 10 120 l0 120 -45 0 c-33 0 -45 4
-45 15 0 18 41 20 71 5 15 -8 19 -7 19 5 0 10 -9 15 -27 15 -15 0 -52 10 -81
22 -51 21 -55 21 -82 6 -29 -17 -35 -17 -80 -4 -21 6 -25 14 -28 52 -2 36 2
49 22 69 14 14 34 25 44 25 25 0 69 -35 77 -61 5 -14 12 -18 26 -14 11 4 27 1
35 -6 13 -10 17 -10 25 2 7 11 9 9 9 -9 0 -14 9 -27 25 -34 14 -6 25 -15 25
-20 0 -5 4 -6 10 -3 13 8 13 85 1 85 -5 0 -11 -5 -13 -11 -2 -5 -11 -7 -21 -3
-14 5 -15 9 -5 21 6 8 20 12 30 10 24 -7 26 -1 33 73 4 35 9 68 12 72 2 5 6
19 7 31 5 37 47 181 60 202 6 11 24 54 40 95 15 41 31 82 37 90 5 8 21 38 35
65 78 149 136 236 249 370 56 67 76 85 87 79 4 -3 5 2 2 10 -3 9 -2 16 3 16 5
0 34 24 64 53 76 73 86 80 94 67 4 -6 3 -9 -2 -8 -5 2 -22 -9 -38 -24 -16 -16
-26 -28 -21 -28 7 0 84 56 96 70 3 4 39 30 81 59 65 45 78 59 93 101 54 149
224 230 426 201 49 -7 98 -10 108 -7 14 5 34 -7 71 -40 28 -25 49 -50 45 -55
-3 -5 -1 -9 3 -9 5 0 18 -7 29 -16 10 -8 13 -12 6 -9 -11 6 -11 3 0 -14 7 -12
18 -21 25 -21 7 0 13 -6 14 -12 0 -10 2 -10 5 -1 3 7 0 22 -7 35 -11 22 -11
22 7 7 33 -29 56 -2 38 45 -7 18 -45 21 -61 5 -8 -8 -15 -5 -26 11 -8 11 -36
43 -62 71 -26 27 -45 52 -42 55 3 3 14 -3 24 -13 14 -14 29 -18 56 -15 21 2
40 8 43 13 13 21 -95 120 -180 164 -22 12 -43 41 -35 50 3 3 23 -2 43 -10 43
-18 39 -2 -5 20 -16 9 -29 20 -29 26 0 12 29 4 82 -22z m783 10 c4 -5 -3 -9
-14 -9 -11 0 -22 4 -25 8 -2 4 4 8 14 9 11 1 22 -2 25 -8z m-1163 -34 c39 -5
46 -9 41 -23 -5 -15 -4 -15 8 1 13 16 18 16 59 4 66 -20 131 -54 165 -85 17
-15 26 -24 21 -19 -6 4 -16 7 -24 7 -10 0 -7 -8 8 -30 28 -39 7 -39 -32 1 -24
23 -33 27 -39 17 -13 -21 -11 -25 18 -33 14 -3 36 -13 47 -22 20 -15 20 -15 1
-8 -78 30 -106 36 -187 42 -74 5 -93 3 -102 -9 -15 -20 -112 -71 -126 -66 -7
2 13 16 44 31 58 28 73 43 34 32 -70 -20 -158 -58 -174 -76 -17 -19 -17 -19
-38 0 -12 11 -50 31 -85 44 -54 20 -61 26 -49 38 7 8 19 26 25 42 7 15 17 27
23 27 5 0 10 6 10 13 1 28 79 63 174 77 50 8 85 7 178 -5z m1883 -11 c40 -10
67 -22 80 -39 12 -14 26 -25 33 -25 7 0 12 -5 12 -12 0 -6 7 -20 17 -30 11
-12 12 -18 4 -18 -8 0 -6 -6 4 -17 16 -16 14 -18 -41 -36 -33 -10 -70 -27 -83
-36 -22 -17 -25 -16 -95 20 -93 49 -137 59 -243 60 -66 1 -101 -4 -142 -20
-30 -11 -57 -18 -59 -16 -5 4 29 20 81 38 9 4 20 15 24 24 4 10 15 24 25 31
48 35 -34 41 -87 6 -18 -12 -23 -20 -16 -27 15 -15 14 -40 -1 -34 -7 2 -12 11
-10 21 4 22 -17 20 -48 -4 -14 -11 -29 -20 -34 -20 -17 0 69 59 130 89 75 37
133 49 146 30 8 -12 9 -11 5 1 -3 12 11 18 62 26 74 13 148 9 236 -12z m-905
0 c0 -8 -4 -12 -10 -9 -5 3 -10 10 -10 16 0 5 5 9 10 9 6 0 10 -7 10 -16z
m-1554 -76 c4 -7 4 -10 -1 -6 -11 11 -36 -12 -28 -25 3 -6 1 -7 -6 -3 -15 10
-43 -13 -34 -27 3 -5 1 -7 -5 -3 -6 3 -13 2 -17 -4 -3 -5 0 -10 7 -10 7 0 0
-12 -16 -26 -15 -14 -33 -23 -39 -21 -12 4 -52 -29 -52 -42 0 -13 -78 -90 -86
-85 -4 2 -11 -1 -15 -7 -4 -8 -3 -9 4 -5 20 12 13 -3 -13 -32 -31 -33 -65
-101 -65 -129 0 -30 35 -70 67 -76 48 -9 83 3 83 28 0 31 44 75 75 75 14 0 39
-7 55 -15 26 -14 30 -21 30 -59 0 -64 -52 -100 -109 -76 -24 9 -34 8 -64 -10
l-36 -22 19 -21 c30 -32 27 -90 -6 -116 -37 -29 -70 -26 -106 9 -25 26 -29 36
-24 63 l6 33 -97 -4 c-105 -4 -193 8 -248 34 -81 38 -141 136 -117 189 15 33
53 50 89 39 l28 -8 -25 -4 c-36 -6 -50 -21 -50 -53 0 -67 115 -79 223 -25 77
40 226 153 349 267 97 91 209 189 214 189 2 0 6 -6 10 -12z m1572 -58 c0 -9
-3 -7 -8 5 -5 11 -8 29 -8 40 0 16 2 15 8 -5 4 -14 8 -32 8 -40z m1437 -120
c136 -126 260 -221 343 -262 108 -54 208 -48 227 12 8 26 -19 60 -47 60 -11 0
-16 5 -13 10 10 17 51 11 80 -12 24 -19 27 -26 22 -65 -5 -51 -45 -107 -97
-137 -88 -52 -297 -63 -422 -22 -73 24 -153 64 -145 73 3 2 22 -5 43 -16 22
-11 52 -23 69 -27 29 -7 29 -7 14 16 -10 15 -36 29 -75 40 -34 9 -75 27 -93
39 -39 28 -54 20 -20 -10 l24 -21 -31 21 c-17 11 -37 28 -44 38 -12 15 -12 16
0 6 24 -21 34 -14 14 9 -14 16 -8 14 26 -9 86 -58 118 -69 193 -65 68 4 89 87
40 159 -16 23 -49 64 -75 93 -27 28 -48 56 -48 61 0 6 -6 7 -12 3 -7 -4 -10
-3 -5 1 10 11 -42 65 -57 59 -16 -6 -80 42 -66 51 5 3 8 11 4 16 -3 5 -10 6
-16 3 -6 -4 -8 -2 -5 3 4 6 -2 18 -13 28 -14 13 -20 14 -20 5 0 -7 -3 -11 -6
-7 -3 3 -3 11 1 17 8 12 52 -23 210 -170z m-4145 143 c0 -9 6 -13 14 -10 10 4
13 1 10 -8 -5 -12 -9 -12 -29 1 -14 9 -21 22 -18 30 6 17 23 8 23 -13z m2517
-25 c-3 -8 -6 -5 -6 6 -1 11 2 17 5 13 3 -3 4 -12 1 -19z m-156 -5 c13 -16 12
-17 -3 -4 -10 7 -18 15 -18 17 0 8 8 3 21 -13z m-2285 -78 c10 -8 14 -15 8
-15 -5 0 -19 7 -30 15 -10 8 -14 15 -8 15 5 0 19 -7 30 -15z m4934 6 c0 -9
-24 -21 -43 -21 -6 0 -2 7 9 15 22 17 34 19 34 6z m-1690 -20 c123 -38 184
-92 220 -193 10 -28 26 -56 36 -61 11 -6 72 -50 136 -99 65 -48 124 -85 131
-83 14 6 132 -111 209 -208 66 -83 160 -233 217 -344 33 -64 47 -83 63 -83 20
0 20 -1 5 -18 -15 -16 -14 -21 2 -57 10 -22 21 -52 24 -67 4 -15 12 -40 18
-55 7 -15 13 -37 14 -48 2 -11 10 -45 18 -75 8 -30 20 -88 27 -127 l12 -73 38
20 c48 24 85 27 76 5 -3 -9 0 -15 9 -15 8 0 12 -6 9 -13 -2 -7 11 -22 33 -34
l38 -22 -55 -25 c-64 -30 -79 -31 -106 -11 -18 14 -18 16 -1 26 38 22 70 56
63 67 -11 18 -34 3 -29 -19 5 -17 1 -19 -28 -17 -34 3 -34 3 -37 -44 -3 -46
-3 -47 29 -50 44 -4 49 -26 7 -30 -31 -3 -33 -5 -36 -45 -2 -24 2 -51 8 -60
10 -17 10 -17 8 0 -2 11 10 29 28 43 l32 25 26 -24 c27 -25 37 -64 14 -52 -7
4 -5 0 5 -8 21 -17 22 -31 2 -47 -20 -16 -9 -32 17 -24 35 11 88 -5 88 -26 0
-46 -144 -20 -183 34 -32 44 -47 34 -47 -31 0 -32 -3 -68 -6 -80 -8 -30 7 -29
40 2 15 14 32 25 39 25 7 0 6 4 -3 11 -23 16 61 3 96 -16 16 -8 38 -15 48 -15
36 0 6 -14 -42 -20 l-47 -5 3 -43 c3 -33 0 -47 -15 -57 -30 -23 -81 -18 -107
10 l-24 25 -16 -82 c-8 -46 -18 -94 -21 -108 l-6 -25 15 26 c37 64 132 32 124
-42 -4 -45 -48 -77 -83 -61 -14 6 -33 25 -44 42 l-18 31 -6 -31 c-12 -55 -97
-263 -149 -360 -89 -167 -188 -300 -335 -448 -61 -61 -88 -82 -101 -78 -13 4
-44 -14 -102 -60 -46 -36 -101 -75 -122 -87 -20 -12 -43 -34 -49 -49 -35 -85
-198 -168 -329 -168 -21 0 -42 -5 -46 -11 -5 -8 -9 -8 -14 1 -5 8 -15 8 -40
-2 l-34 -14 40 -21 c50 -26 174 -47 225 -39 68 11 113 40 73 48 -13 3 -13 5 0
23 12 17 18 18 35 8 15 -10 20 -10 24 0 3 8 10 6 25 -7 21 -18 22 -18 66 7 25
14 48 21 52 16 9 -15 76 -46 117 -53 40 -7 45 -16 22 -39 -8 -8 -12 -17 -9
-20 4 -3 -6 -18 -20 -34 -14 -15 -26 -31 -26 -35 0 -13 -68 -37 -151 -54 -66
-13 -92 -14 -157 -4 -42 6 -95 13 -117 16 -22 3 -63 16 -92 29 -62 28 -177
104 -169 113 3 3 14 -2 23 -10 18 -16 120 -78 128 -78 3 0 5 9 5 19 0 11 7 26
15 35 13 13 11 16 -23 26 -76 24 -226 125 -205 138 6 4 -10 25 -40 52 -28 25
-48 37 -44 27 4 -11 3 -16 -4 -12 -5 4 -8 12 -6 18 2 7 -11 32 -30 56 -50 66
-40 69 21 6 56 -57 135 -101 201 -112 54 -9 271 79 388 157 63 42 80 84 75
178 -5 80 13 63 32 -31 7 -34 15 -64 16 -66 7 -8 123 87 218 179 544 525 697
1331 385 2023 -93 207 -213 381 -365 529 -104 102 -236 210 -245 200 -3 -4
-12 -28 -19 -55 -18 -65 -33 -71 -24 -8 12 94 6 101 -158 189 -80 43 -303 128
-354 135 -29 4 -96 -23 -109 -43 -4 -6 -1 -17 5 -25 8 -9 8 -15 2 -15 -6 0
-12 6 -15 13 -3 7 -18 -2 -42 -26 -20 -21 -39 -36 -41 -34 -2 2 3 20 11 40 16
38 57 88 134 162 39 39 47 42 81 38 21 -3 46 -1 55 5 34 18 176 14 245 -7z
m-2815 -17 c27 -8 79 -15 115 -15 57 -1 60 -2 27 -9 -21 -4 -43 -13 -50 -20
-10 -10 -3 -11 33 -5 74 12 39 -4 -44 -20 -146 -28 -281 -15 -310 31 -16 23
-15 23 22 29 20 4 55 12 77 20 41 13 46 13 130 -11z m4166 12 c24 -8 61 -17
82 -21 34 -5 53 -25 25 -25 -10 0 -10 -3 0 -9 22 -14 -43 -32 -133 -38 -75 -4
-259 17 -274 33 -3 3 16 3 44 -2 45 -6 49 -5 37 9 -8 9 -30 18 -50 20 -20 2
-3 5 38 6 42 1 97 10 125 20 28 10 53 19 56 20 3 0 25 -5 50 -13z m-3854 -12
c-3 -3 -12 -4 -19 -1 -8 3 -5 6 6 6 11 1 17 -2 13 -5z m561 -64 c4 0 25 11 47
25 22 13 44 25 49 25 15 0 -25 -39 -62 -62 l-35 -21 -28 31 c-36 40 -39 67 -4
29 14 -15 29 -27 33 -27z m-139 -17 c31 -26 38 -82 13 -113 -16 -20 -28 -24
-80 -24 -66 -1 -66 -1 -46 62 2 6 -2 12 -8 12 -6 0 -9 2 -6 5 9 9 38 -7 32
-17 -11 -18 29 9 54 35 15 16 20 27 13 32 -13 8 -15 25 -2 25 5 0 18 -8 30
-17z m2643 -77 c31 -30 58 -52 61 -50 2 2 10 -4 18 -13 12 -16 12 -17 -2 -6
-9 7 -18 11 -20 8 -3 -2 -34 22 -70 55 -35 32 -59 59 -54 59 6 0 35 -24 67
-53z m-2708 29 c-4 -8 -11 -15 -16 -15 -6 0 -5 6 2 15 7 8 14 15 16 15 2 0 1
-7 -2 -15z m956 -45 c0 -11 -7 -20 -15 -20 -8 0 -15 9 -15 20 0 11 7 20 15 20
8 0 15 -9 15 -20z m660 -10 c0 -5 -5 -10 -11 -10 -5 0 -7 5 -4 10 3 6 8 10 11
10 2 0 4 -4 4 -10z m-685 -127 c-1 -16 -6 -36 -10 -46 -5 -11 -1 -25 10 -37
24 -27 7 -25 -22 2 -30 28 -30 72 -1 92 12 9 23 16 23 16 1 0 1 -12 0 -27z
m-120 -56 c18 -26 19 -48 3 -82 -31 -69 -146 -25 -130 50 13 61 93 81 127 32z
m1850 -45 c-7 -7 -45 29 -45 41 0 6 11 0 25 -13 14 -13 23 -26 20 -28z m-2062
-23 c26 -12 47 -47 47 -79 0 -57 -102 -84 -134 -35 -9 13 -16 35 -16 48 0 23
31 59 60 70 8 3 16 6 17 6 1 1 13 -4 26 -10z m-153 -129 c70 -70 -15 -171 -93
-110 -35 28 -36 72 -2 105 29 30 68 32 95 5z m-869 -71 c5 -11 9 -37 7 -57 -2
-31 -9 -40 -36 -54 -26 -13 -40 -14 -63 -6 -70 24 -63 127 11 150 23 7 69 -12
81 -33z m1292 -62 c-3 -5 -10 -4 -15 1 -6 6 -7 16 -3 22 6 9 9 9 16 -1 4 -7 5
-17 2 -22z m-33 13 c0 -5 -4 -10 -10 -10 -5 0 -10 5 -10 10 0 6 5 10 10 10 6
0 10 -4 10 -10z m-540 -20 c11 -11 20 -33 20 -50 l0 -30 221 0 c200 0 223 2
235 18 13 16 13 16 14 0 0 -10 5 -18 10 -18 6 0 8 11 4 25 -5 20 -1 27 21 37
25 11 29 10 47 -11 14 -18 22 -21 30 -13 17 17 38 15 32 -3 -4 -8 -12 -15 -20
-15 -8 0 -14 -4 -14 -10 0 -6 48 -10 125 -10 l125 0 0 -39 0 -40 -47 -6 c-157
-21 -207 -46 -219 -112 l-7 -35 -22 28 c-15 19 -27 25 -39 21 -11 -4 -16 -13
-12 -22 3 -8 1 -15 -5 -15 -5 0 -15 -11 -21 -25 -13 -28 -30 -32 -47 -11 -10
12 -9 14 7 10 29 -8 45 18 26 44 -20 28 -42 28 -54 0 -8 -21 -9 -21 -9 -3 -1
10 11 29 27 41 24 20 25 23 9 29 -18 8 -50 -12 -42 -25 3 -4 -2 -11 -11 -14
-12 -4 -15 -2 -11 9 9 22 -7 26 -31 9 -30 -21 -28 -31 8 -39 17 -4 30 -13 30
-21 0 -16 -16 -19 -25 -4 -11 18 -32 11 -43 -16 -11 -22 -9 -30 14 -60 32 -41
50 -39 47 6 l-2 33 23 -22 c23 -22 56 -28 56 -11 0 5 6 7 14 4 9 -3 19 4 26
17 9 16 14 19 20 8 7 -10 12 -10 26 2 16 13 16 12 3 -8 -18 -29 -4 -41 21 -18
18 17 20 17 14 2 -8 -21 -52 -33 -66 -19 -7 7 -19 7 -37 0 -14 -5 -37 -12 -51
-15 -33 -6 -36 -11 -24 -31 17 -27 48 -25 83 3 17 15 31 22 31 16 0 -14 -39
-49 -62 -57 -20 -6 -68 20 -68 36 0 6 -9 10 -19 10 -31 0 -73 58 -66 90 8 34
-14 87 -48 118 -18 17 -45 26 -98 34 -120 16 -116 14 -123 53 -6 32 -9 34 -22
20 -38 -37 -117 -19 -130 29 -17 69 76 126 126 76z m616 4 c-3 -9 -6 -20 -6
-25 0 -15 -17 -10 -24 7 -8 20 1 34 21 34 10 0 13 -6 9 -16z m-1276 -22 c0
-13 -12 -22 -22 -16 -10 6 -1 24 13 24 5 0 9 -4 9 -8z m2838 -87 c1 -16 -1
-36 -6 -43 -4 -6 -44 -17 -87 -22 -94 -12 -143 -35 -170 -81 -20 -33 -20 -52
-20 -829 0 -777 0 -796 20 -829 27 -46 75 -69 173 -83 l82 -11 0 -39 0 -38
-126 0 c-115 0 -159 8 -174 30 -3 5 -23 10 -45 11 -35 4 -40 1 -43 -18 -4 -28
-7 -28 -32 -3 -24 24 -53 26 -75 4 -13 -13 -18 -14 -31 -3 -13 10 -19 10 -36
0 -15 -9 -23 -10 -31 -2 -16 16 -37 13 -37 -4 0 -12 -15 -15 -79 -15 -44 0
-86 -3 -95 -6 -13 -5 -16 2 -16 38 l0 45 95 15 c105 17 136 33 162 81 16 29
18 71 21 430 l3 397 -30 0 c-16 0 -32 4 -35 8 -3 5 -29 5 -58 1 -29 -4 -159
-6 -288 -4 -129 1 -278 -1 -330 -4 -86 -5 -96 -8 -105 -28 -6 -14 -18 -23 -32
-23 -13 0 -26 0 -30 -1 -4 0 -9 5 -11 11 -3 7 5 9 21 5 29 -8 46 11 27 28 -10
9 -14 9 -17 0 -5 -15 -30 -17 -35 -5 -1 5 -33 7 -70 4 -61 -4 -68 -6 -68 -26
0 -17 2 -18 10 -6 8 13 10 12 10 -3 0 -26 -28 -77 -67 -120 -19 -22 -33 -41
-30 -43 7 -7 110 38 145 64 18 13 31 30 29 36 -3 7 8 17 24 23 16 6 29 9 29 7
0 -3 -16 -21 -35 -41 -19 -20 -33 -39 -30 -42 3 -3 -13 -10 -36 -16 -42 -10
-66 -35 -35 -35 9 0 16 -4 16 -10 0 -14 -12 -12 -39 6 -31 22 -55 2 -25 -21
17 -13 17 -14 2 -15 -9 0 -20 5 -24 11 -9 16 -26 -4 -19 -23 4 -9 20 -18 36
-22 16 -3 52 -27 80 -53 46 -43 50 -51 45 -81 -7 -49 -31 -79 -66 -87 -24 -5
-31 -12 -29 -28 3 -44 -2 -56 -36 -97 -19 -23 -35 -48 -35 -56 0 -11 -4 -12
-19 -4 -11 5 -29 10 -41 10 -17 0 -21 -4 -16 -17 4 -9 10 -36 13 -59 5 -36 2
-44 -21 -66 -26 -23 -26 -26 -12 -54 8 -16 17 -37 20 -46 14 -47 41 10 67 137
6 33 17 64 24 70 7 5 21 33 31 60 22 60 87 128 137 144 45 15 94 2 128 -33 19
-20 25 -22 37 -10 15 15 42 19 42 6 0 -14 -23 -32 -42 -32 -14 0 -16 -6 -12
-29 7 -32 -26 -105 -51 -115 -53 -20 -115 10 -115 55 0 32 19 59 41 59 21 0
21 0 -1 -18 -19 -16 -21 -22 -11 -40 27 -51 101 -30 101 29 0 57 -47 110 -97
109 -52 -2 -118 -64 -153 -146 -24 -54 -62 -186 -56 -191 10 -10 87 20 96 37
15 28 13 45 -4 31 -10 -9 -16 -8 -26 4 -11 13 -11 19 2 31 13 13 20 14 38 4
17 -9 21 -19 18 -47 -3 -36 21 -67 39 -50 4 5 1 12 -7 17 -11 7 -8 10 13 10
30 0 35 -11 12 -30 -8 -7 -15 -16 -15 -20 0 -10 68 -26 143 -35 l57 -7 0 -39
0 -39 -112 0 c-624 -3 -702 -1 -708 17 -16 48 -8 57 63 69 37 6 70 13 73 16 3
4 1 15 -5 26 -6 12 -11 23 -11 26 0 3 29 6 64 6 54 0 69 -4 94 -25 29 -24 82
-34 82 -16 0 6 -10 17 -21 25 -16 11 -23 28 -26 64 -3 42 0 54 22 80 l25 30
-22 25 c-18 19 -30 23 -55 20 -23 -4 -45 2 -75 21 -82 50 -81 47 -65 108 11
44 12 60 1 91 -13 37 -13 37 32 81 24 24 44 52 44 62 0 44 -63 71 -90 39 -10
-12 -10 -22 -1 -43 10 -25 10 -26 -4 -8 -8 11 -15 25 -15 31 0 18 30 55 46 55
8 0 12 5 9 10 -3 6 3 24 15 40 28 40 76 42 86 5 7 -29 -1 -55 -17 -55 -8 0 -8
4 0 14 10 11 10 20 0 37 -10 20 -12 21 -21 5 -6 -10 -8 -26 -5 -37 3 -11 1
-16 -5 -13 -5 4 -8 17 -5 30 5 29 -9 32 -18 4 -4 -13 1 -31 14 -49 12 -16 21
-45 21 -65 0 -45 12 -46 36 -1 10 19 20 35 21 35 1 0 13 -5 27 -11 21 -10 29
-8 52 10 15 11 37 21 50 21 28 0 30 7 8 32 -17 18 -19 38 -13 120 3 39 -1 52
-21 73 -25 27 -68 33 -88 13 -20 -20 -14 -58 11 -68 16 -6 17 -9 5 -9 -9 -1
-25 10 -36 24 -11 14 -25 25 -31 25 -6 0 -11 5 -11 11 0 6 7 9 15 6 8 -4 17
-2 21 4 3 6 -3 13 -15 16 -25 6 -28 23 -5 23 10 0 14 6 11 14 -3 8 -3 17 0 20
3 3 5 55 5 115 l-1 110 -35 46 c-20 26 -36 51 -36 56 0 5 16 9 35 9 l35 0 0
57 c0 54 -1 55 -18 40 -26 -24 -49 -21 -68 8 -14 21 -14 30 -4 55 15 35 52 49
77 29 14 -13 16 -11 11 14 -6 29 6 37 16 10 4 -9 2 -21 -3 -26 -6 -6 -6 -18
-1 -31 5 -11 11 -38 15 -58 7 -43 20 -57 22 -25 2 24 34 99 40 94 2 -2 -4 -23
-12 -47 -17 -47 -19 -98 -6 -118 5 -9 10 0 15 28 12 77 89 126 131 84 15 -15
17 -15 30 2 7 11 17 15 22 11 4 -5 0 -14 -10 -21 -9 -7 -17 -24 -17 -36 0 -28
-27 -60 -50 -60 -36 0 -55 52 -23 64 9 4 21 2 27 -4 8 -8 6 -9 -6 -5 -14 5
-18 2 -18 -13 0 -27 17 -37 35 -22 35 29 -1 99 -44 85 -39 -12 -61 -53 -61
-114 0 -68 9 -86 40 -76 22 7 22 6 6 -16 -9 -13 -16 -31 -16 -41 0 -12 -8 -18
-25 -18 -17 0 -29 -9 -40 -31 -16 -29 -15 -32 10 -65 27 -35 55 -45 55 -20 0
8 -12 24 -27 35 -14 12 -24 24 -21 26 3 3 11 -1 18 -10 17 -20 30 -19 31 3 1
16 2 16 6 0 2 -10 9 -18 15 -18 6 0 20 -8 30 -17 18 -16 19 -16 24 4 3 12 12
24 20 27 11 4 11 0 -2 -19 -14 -22 -14 -25 -1 -31 9 -3 25 -1 36 5 17 9 20 9
15 -3 -6 -16 29 -31 47 -20 8 4 9 3 5 -4 -4 -7 -14 -12 -22 -12 -21 0 -17 -18
6 -25 11 -4 33 1 50 12 26 15 30 23 27 48 -3 16 -8 39 -13 50 -7 18 -6 18 9 6
9 -7 17 -22 17 -33 0 -11 5 -28 10 -39 10 -18 26 -19 466 -19 l455 0 -3 338
c-4 391 -3 386 -91 428 -29 13 -68 24 -88 24 -20 0 -51 3 -68 6 -28 6 -31 10
-31 45 l0 39 383 3 c210 1 396 3 412 2 26 0 30 -4 33 -30z m972 4 c0 -4 -6 -9
-12 -11 -7 -3 -2 -7 10 -10 12 -4 20 -2 16 3 -3 5 0 9 5 9 6 0 11 -6 11 -14 0
-8 5 -27 12 -43 6 -15 10 -36 9 -45 -1 -10 3 -18 8 -18 6 0 11 -5 11 -11 0 -5
-5 -7 -11 -3 -8 4 -9 -1 -5 -17 21 -76 31 -99 43 -99 14 0 16 -24 3 -55 -7
-18 -8 -19 -15 -2 -4 9 -13 17 -21 17 -8 0 -14 10 -14 25 0 16 -6 25 -15 25
-15 0 -21 25 -7 33 4 2 1 2 -5 1 -7 -2 -15 9 -18 24 -4 15 -19 63 -36 108 -16
45 -29 83 -29 86 0 2 14 5 30 5 17 0 30 -4 30 -8z m-4140 -3 c0 -3 -13 -45
-30 -94 -16 -50 -30 -97 -30 -106 0 -9 -3 -16 -8 -16 -12 0 -33 40 -27 50 4 6
2 10 -3 10 -5 0 -12 14 -14 30 -4 24 -1 30 10 25 12 -5 13 -3 2 10 -11 13 -10
18 4 28 10 7 16 19 14 26 -2 7 6 15 17 17 11 1 21 8 23 13 3 10 42 16 42 7z
m134 -27 c20 -16 26 -29 26 -59 0 -21 -4 -42 -10 -45 -5 -3 -10 -14 -10 -24 0
-16 -6 -17 -52 -10 -28 5 -56 13 -61 18 -5 5 -12 29 -14 54 -5 39 -2 46 22 65
35 28 65 28 99 1z m136 -9 c0 -5 -4 -10 -10 -10 -5 0 -10 5 -10 10 0 6 5 10
10 10 6 0 10 -4 10 -10z m587 -22 c47 -44 16 -119 -52 -121 -28 -1 -42 5 -56
22 -59 72 40 163 108 99z m2487 -19 c50 -39 24 -109 -40 -109 -18 0 -35 4 -38
8 -3 5 8 8 24 7 20 -1 27 2 21 9 -4 6 -13 26 -19 45 -11 30 -10 32 6 26 13 -5
14 -3 6 5 -9 9 -17 9 -33 1 -17 -9 -20 -9 -15 3 5 14 22 22 50 25 6 0 23 -8
38 -20z m-3094 1 c0 -5 -5 -10 -11 -10 -5 0 -7 5 -4 10 3 6 8 10 11 10 2 0 4
-4 4 -10z m4497 4 c-3 -3 -12 -4 -19 -1 -8 3 -5 6 6 6 11 1 17 -2 13 -5z
m-277 -30 c0 -16 -16 -19 -25 -4 -8 13 4 32 16 25 5 -4 9 -13 9 -21z m-4227
-28 l28 -22 -22 -20 c-19 -16 -21 -16 -16 -2 9 24 -4 30 -25 11 -19 -17 -25
-63 -8 -63 19 0 10 -21 -13 -29 -28 -11 -61 -74 -52 -100 3 -11 1 -22 -4 -25
-6 -4 -8 -12 -6 -19 2 -7 6 -45 10 -85 6 -73 6 -73 -15 -62 -12 6 -23 10 -24
8 -1 -2 -7 -14 -13 -28 -11 -23 -12 -21 -11 20 1 25 -5 61 -12 81 -12 33 -11
38 9 58 11 11 25 21 30 21 5 0 11 14 15 32 3 17 22 69 42 115 26 61 33 88 26
95 -8 8 -7 15 6 24 22 17 22 17 55 -10z m-943 -1 c0 -8 -4 -15 -10 -15 -5 0
-10 7 -10 15 0 8 5 15 10 15 6 0 10 -7 10 -15z m338 -7 c-4 -29 -38 -38 -38
-10 0 22 8 32 27 32 9 0 13 -8 11 -22z m4162 12 c0 -5 -4 -10 -10 -10 -5 0
-10 5 -10 10 0 6 5 10 10 10 6 0 10 -4 10 -10z m-513 -32 c-3 -7 -5 -2 -5 12
0 14 2 19 5 13 2 -7 2 -19 0 -25z m-3831 -16 c15 -10 23 -37 15 -50 -5 -8 -13
1 -24 23 -16 34 -13 43 9 27z m4824 -6 c0 -8 -4 -17 -9 -21 -12 -7 -24 12 -16
25 9 15 25 12 25 -4z m380 6 c0 -4 -9 -13 -20 -20 -11 -7 -20 -23 -20 -37 0
-14 -4 -25 -10 -25 -17 0 -11 30 11 61 19 27 39 38 39 21z m-3935 -38 c18 -7
45 -55 45 -79 0 -26 -46 -65 -78 -65 -67 0 -99 88 -46 129 27 22 50 26 79 15z
m-1440 -51 c3 -15 15 -39 26 -55 l20 -28 -45 0 c-25 0 -46 5 -46 10 0 6 5 10
10 10 6 0 10 23 10 51 0 52 13 59 25 12z m223 4 c2 -19 -1 -27 -12 -27 -10 0
-14 10 -14 30 1 37 22 34 26 -3z m82 23 c0 -5 -4 -10 -10 -10 -5 0 -10 5 -10
10 0 6 5 10 10 10 6 0 10 -4 10 -10z m3868 -14 c23 -22 31 -72 15 -95 -20 -30
-77 -28 -107 2 -58 59 32 149 92 93z m1370 -43 c-3 -35 -1 -37 26 -38 16 0 31
-6 34 -13 3 -10 -6 -12 -39 -8 -24 3 -54 5 -66 5 l-22 1 24 43 c14 23 25 51
25 62 1 19 1 19 11 2 6 -10 9 -34 7 -54z m-4805 46 c52 -24 60 -94 14 -123
-26 -17 -145 -27 -154 -13 -3 5 -1 12 5 16 6 3 13 19 16 34 3 15 8 38 11 52 8
39 61 55 108 34z m3972 -19 c12 -11 26 -20 33 -20 26 0 21 -24 -14 -60 -21
-21 -41 -37 -45 -35 -4 3 -10 20 -13 40 -4 19 -18 47 -31 63 -13 16 -21 32
-17 36 11 12 64 -3 87 -24z m35 14 c0 -8 -5 -12 -10 -9 -6 4 -8 11 -5 16 9 14
15 11 15 -7z m-4180 -34 c0 -5 -2 -10 -4 -10 -3 0 -8 5 -11 10 -3 6 -1 10 4
10 6 0 11 -4 11 -10z m5150 0 c0 -5 -2 -10 -4 -10 -3 0 -8 5 -11 10 -3 6 -1
10 4 10 6 0 11 -4 11 -10z m-6120 -31 c0 -5 -10 -9 -21 -9 -18 0 -19 2 -9 15
12 15 30 12 30 -6z m2347 -25 c-9 -10 -38 16 -31 28 4 6 13 4 22 -6 9 -8 13
-19 9 -22z m38 26 c3 -5 3 -15 -1 -21 -6 -11 -23 6 -24 24 0 10 18 9 25 -3z
m160 -8 c-3 -3 -11 0 -18 7 -9 10 -8 11 6 5 10 -3 15 -9 12 -12z m2485 -12 c0
-5 -7 -10 -15 -10 -8 0 -15 5 -15 10 0 6 7 10 15 10 8 0 15 -4 15 -10z m-2710
-22 c0 -6 -7 -7 -16 -4 -9 3 -18 6 -20 6 -3 0 -3 4 1 10 7 11 35 2 35 -12z
m-1416 -3 c3 -8 1 -15 -4 -15 -6 0 -10 7 -10 15 0 8 2 15 4 15 2 0 6 -7 10
-15z m-909 -16 c0 -7 -8 -15 -17 -17 -18 -3 -25 18 -11 32 10 10 28 1 28 -15z
m5325 11 c0 -5 -2 -10 -4 -10 -3 0 -8 5 -11 10 -3 6 -1 10 4 10 6 0 11 -4 11
-10z m-2703 -25 c-4 -8 -11 -15 -17 -15 -7 0 -7 6 0 21 13 23 26 19 17 -6z
m-73 -1 c7 -19 -2 -37 -15 -29 -12 8 -12 45 0 45 5 0 12 -7 15 -16z m32 -11
c-10 -10 -19 5 -10 18 6 11 8 11 12 0 2 -7 1 -15 -2 -18z m3474 17 c0 -5 -4
-10 -10 -10 -5 0 -10 5 -10 10 0 6 5 10 10 10 6 0 10 -4 10 -10z m-3760 -10
c0 -5 -7 -10 -16 -10 -8 0 -12 5 -9 10 3 6 10 10 16 10 5 0 9 -4 9 -10z m364
-14 c-3 -9 -10 -16 -15 -16 -14 0 -11 28 4 33 16 6 19 3 11 -17z m2487 1 c-10
-9 -11 -8 -5 6 3 10 9 15 12 12 3 -3 0 -11 -7 -18z m-3362 -13 c39 -50 16
-108 -46 -120 -66 -13 -108 73 -61 123 30 33 80 31 107 -3z m-1515 -10 c3 -8
2 -12 -4 -9 -6 3 -10 10 -10 16 0 14 7 11 14 -7z m844 -9 c17 -36 15 -38 -14
-31 -24 6 -25 6 -10 -9 8 -9 21 -34 27 -56 11 -36 10 -41 -11 -64 -30 -31 -77
-33 -115 -4 -23 19 -26 26 -20 58 8 45 29 69 64 73 18 2 26 9 26 23 0 17 15
32 36 34 3 1 11 -10 17 -24z m3557 0 c50 -49 19 -115 -54 -115 -56 0 -81 73
-39 117 28 30 63 29 93 -2z m630 5 c0 -7 -10 -15 -23 -16 -20 -4 -21 -2 -10
16 14 22 33 22 33 0z m-2997 -2 c-2 -6 -10 -14 -16 -16 -7 -2 -10 2 -6 12 7
18 28 22 22 4z m2862 -3 c-7 -8 -19 -15 -26 -15 -8 0 -14 7 -14 15 0 10 10 15
26 15 22 0 25 -2 14 -15z m281 -95 c15 -57 12 -89 -9 -76 -5 3 -13 23 -17 43
-7 40 -4 41 -45 -16 -8 -12 -20 -21 -27 -21 -20 0 -15 18 7 25 11 4 20 15 20
26 0 11 7 22 15 25 9 4 15 19 15 42 0 51 20 28 41 -48z m-2756 50 c-3 -5 -10
-10 -16 -10 -5 0 -9 5 -9 10 0 6 7 10 16 10 8 0 12 -4 9 -10z m2441 -15 c-1
-22 -7 -27 -33 -24 -4 0 -10 -8 -14 -18 -6 -17 -7 -17 -14 -1 -7 18 17 50 45
61 8 3 16 6 16 6 1 1 1 -10 0 -24z m264 21 c0 -2 -7 -9 -15 -16 -12 -10 -15
-10 -15 4 0 9 7 16 15 16 8 0 15 -2 15 -4z m-5480 -31 c0 -8 -7 -15 -15 -15
-16 0 -20 12 -8 23 11 12 23 8 23 -8z m2910 -10 c7 -9 10 -25 6 -42 -6 -21 -2
-30 20 -48 21 -17 26 -27 21 -47 -7 -27 -31 -43 -50 -31 -6 4 -2 10 11 14 12
5 22 15 22 23 0 21 -28 46 -53 46 -18 0 -19 2 -5 13 23 18 29 44 12 57 -11 10
-14 9 -14 -6 0 -13 -3 -15 -11 -7 -14 14 -5 43 14 43 8 0 20 -7 27 -15z m2530
-5 c0 -5 -5 -10 -11 -10 -5 0 -7 5 -4 10 3 6 8 10 11 10 2 0 4 -4 4 -10z
m-2465 -50 c-10 -11 -22 -20 -27 -20 -4 0 -3 9 4 20 7 11 19 20 27 20 11 0 10
-5 -4 -20z m2265 0 c0 -5 -4 -10 -10 -10 -5 0 -10 5 -10 10 0 6 5 10 10 10 6
0 10 -4 10 -10z m140 -41 c0 -4 -7 -9 -15 -13 -9 -3 -15 0 -15 10 0 8 -7 17
-15 20 -8 4 -15 10 -15 15 0 4 13 0 30 -9 16 -9 30 -20 30 -23z m-78 21 c6 0
8 -3 5 -7 -10 -9 -57 -13 -57 -4 0 14 14 22 28 16 7 -3 19 -5 24 -5z m-4020
-25 c-4 -26 -22 -45 -22 -25 0 12 18 50 24 50 2 0 1 -11 -2 -25z m531 -6 c17
-24 18 -31 7 -63 -25 -77 -140 -58 -140 23 0 15 7 37 16 49 23 33 89 28 117
-9z m-1473 7 c0 -3 -4 -8 -10 -11 -5 -3 -10 -1 -10 4 0 6 5 11 10 11 6 0 10
-2 10 -4z m2446 -11 c3 -8 24 -20 45 -26 35 -11 39 -15 39 -45 0 -21 -7 -37
-17 -44 -17 -10 -17 -10 0 -20 17 -11 24 -60 8 -60 -5 0 -7 8 -4 18 3 13 -7
27 -31 46 -44 33 -46 48 -6 36 28 -8 30 -7 30 20 0 16 -7 30 -16 34 -26 10
-36 7 -31 -9 4 -8 2 -17 -3 -20 -6 -4 -10 -1 -10 4 0 6 -4 11 -10 11 -5 0 -10
-13 -10 -30 0 -24 -3 -28 -17 -23 -10 4 -21 12 -26 19 -4 7 -14 11 -22 7 -11
-4 -13 -1 -9 11 3 9 10 16 15 16 5 0 9 5 9 11 0 7 -10 9 -26 5 -33 -9 -23 9
20 35 37 23 65 24 72 4z m2034 -5 c45 -45 11 -120 -53 -120 -61 0 -94 66 -57
113 27 34 80 37 110 7z m474 -5 c3 -8 1 -15 -3 -15 -5 0 -11 7 -15 15 -3 8 -1
15 3 15 5 0 11 -7 15 -15z m256 -17 c0 -36 -4 -35 -14 5 -4 16 -2 27 4 27 5 0
10 -14 10 -32z m-4341 3 c9 -6 10 -10 2 -16 -15 -8 -41 1 -41 15 0 12 20 13
39 1z m4151 -31 c0 -12 -40 -34 -47 -26 -9 8 17 36 33 36 8 0 14 -4 14 -10z
m-2680 -22 c0 -19 -6 -23 -38 -25 l-37 -3 30 25 c37 31 45 31 45 3z m-1360 -9
c0 -6 -7 -9 -15 -5 -24 9 -43 -3 -38 -25 6 -21 -13 -27 -20 -6 -7 22 17 47 45
47 16 0 28 -5 28 -11z m433 -90 c30 -16 37 -28 37 -66 0 -22 -8 -38 -26 -52
-54 -42 -118 -13 -118 54 0 60 53 92 107 64z m3091 -30 c26 -20 36 -69 18 -95
-13 -20 -53 -35 -75 -28 -60 18 -76 76 -32 119 30 30 54 31 89 4z m639 14 c-7
-2 -21 -2 -30 0 -10 3 -4 5 12 5 17 0 24 -2 18 -5z m15 -41 c2 -7 -3 -12 -12
-12 -9 0 -16 7 -16 16 0 17 22 14 28 -4z m-4296 -28 c10 -3 15 -11 11 -20 -4
-11 -14 -13 -37 -9 -55 11 -63 15 -63 31 0 12 8 14 36 9 20 -3 44 -8 53 -11z
m4189 -3 c-13 -23 -95 -38 -117 -21 -21 18 -9 28 37 28 23 1 44 3 47 6 3 3 14
6 24 6 15 0 17 -4 9 -19z m-4263 -97 c15 -10 22 -25 22 -49 0 -44 -22 -65 -70
-65 -33 0 -42 5 -54 28 -37 72 36 133 102 86z m640 -40 c12 -14 22 -31 22 -39
0 -27 -23 -63 -47 -74 -34 -16 -47 -14 -77 10 -20 16 -26 29 -26 60 0 34 5 42
32 59 38 23 64 19 96 -16z m722 26 c0 -5 -5 -10 -11 -10 -5 0 -7 5 -4 10 3 6
8 10 11 10 2 0 4 -4 4 -10z m580 5 c0 -2 -10 -10 -22 -16 -21 -11 -22 -11 -9
4 13 16 31 23 31 12z m-180 -25 c0 -5 -4 -10 -10 -10 -5 0 -10 5 -10 10 0 6 5
10 10 10 6 0 10 -4 10 -10z m120 -21 c0 -5 -7 -9 -15 -9 -9 0 -12 6 -9 15 6
15 24 11 24 -6z m1830 11 c50 -27 49 -98 -2 -123 -37 -18 -62 -12 -88 21 -27
33 -25 58 5 87 26 27 54 31 85 15z m-2238 -69 c6 -14 14 -34 19 -43 7 -14 5
-18 -12 -18 -23 0 -60 18 -71 34 -4 6 -8 25 -8 43 0 31 1 32 31 21 18 -6 35
-21 41 -37z m248 40 c0 -5 -7 -11 -15 -15 -15 -5 -20 5 -8 17 9 10 23 9 23 -2z
m115 -10 c-3 -6 -11 -11 -17 -11 -6 0 -6 6 2 15 14 17 26 13 15 -4z m-165 -17
c0 -8 -5 -12 -10 -9 -6 4 -8 11 -5 16 9 14 15 11 15 -7z m2787 -91 c-2 -21 -4
-4 -4 37 0 41 2 58 4 38 2 -21 2 -55 0 -75z m-3212 75 c8 -13 11 -24 6 -26 -6
-2 -7 -10 -4 -18 3 -8 2 -14 -1 -14 -7 0 -46 61 -46 73 0 16 30 6 45 -15z
m-1083 -31 c-16 -8 -20 -16 -15 -37 5 -28 -17 -56 -25 -32 -2 7 -8 10 -12 7
-5 -3 -7 -12 -4 -19 8 -21 -21 -39 -45 -27 -31 17 -43 14 -31 -8 15 -30 12
-46 -15 -75 -32 -34 -69 -34 -92 1 -13 19 -14 28 -5 31 6 2 12 11 12 20 0 13
-2 14 -9 3 -6 -9 -11 -10 -15 -2 -4 6 -1 14 7 17 9 3 13 13 10 25 -5 16 0 19
36 19 23 0 53 7 67 16 13 9 39 20 57 23 26 6 32 12 29 31 -5 44 4 51 39 33 32
-16 32 -17 11 -26z m1638 23 c-8 -5 -19 -10 -25 -10 -5 0 -3 5 5 10 8 5 20 10
25 10 6 0 3 -5 -5 -10z m-1706 -16 c8 -20 11 -18 -42 -33 -45 -13 -62 -9 -62
15 0 31 93 47 104 18z m4006 -36 c0 -5 -4 -8 -10 -8 -5 0 -10 10 -10 23 0 18
2 19 10 7 5 -8 10 -18 10 -22z m-2370 -3 c-7 -8 -19 -15 -27 -15 -13 0 -13 3
-3 15 7 8 19 15 27 15 13 0 13 -3 3 -15z m2620 -3 c0 -15 -11 -21 -27 -15 -12
5 -12 7 -1 14 17 11 28 11 28 1z m-3695 -77 c49 -48 19 -125 -50 -125 -39 0
-75 37 -75 77 0 32 42 73 75 73 14 0 37 -11 50 -25z m3049 -1 c39 -38 6 -124
-48 -124 -60 0 -95 68 -60 118 18 27 84 31 108 6z m-3539 -84 c3 -5 -1 -10 -9
-10 -9 0 -16 5 -16 10 0 6 4 10 9 10 6 0 13 -4 16 -10z m-125 -18 c0 -4 -10
-13 -22 -21 -23 -14 -23 -14 -4 8 20 22 26 25 26 13z m4205 -22 c10 -11 16
-20 13 -20 -3 0 -15 9 -28 20 -13 11 -19 20 -13 20 5 0 18 -9 28 -20z m-4185
-13 c0 -2 -10 -12 -22 -23 l-23 -19 19 23 c18 21 26 27 26 19z m1761 -60 c-8
-8 -14 -8 -22 0 -9 9 -7 19 7 40 l19 28 3 -29 c2 -16 -1 -33 -7 -39z m2423 18
c9 -14 15 -25 13 -25 -2 0 -14 11 -27 25 -13 14 -19 25 -13 25 6 0 18 -11 27
-25z m-3563 -5 c5 0 18 -9 29 -20 44 -44 8 -120 -56 -120 -55 0 -94 71 -61
112 17 22 50 38 65 33 8 -3 18 -5 23 -5z m1207 -12 c-6 -16 -36 -34 -44 -25
-9 9 15 37 33 37 8 0 13 -5 11 -12z m1764 -5 c28 -25 24 -77 -8 -102 -34 -27
-62 -27 -91 1 -65 61 32 162 99 101z m-3612 -33 c0 -11 6 -19 13 -17 16 3 22
-60 6 -79 -16 -19 -57 -18 -77 3 -13 13 -13 15 -2 11 8 -2 20 1 27 8 15 15 17
54 3 54 -5 0 -7 7 -4 15 10 26 -16 16 -28 -10 -6 -14 -17 -25 -25 -25 -17 0
-17 11 3 38 21 30 84 32 84 2z m1884 -5 c-16 -25 -44 -31 -46 -10 -1 10 38 35
55 35 4 0 0 -11 -9 -25z m-1714 -61 c0 -8 -4 -12 -10 -9 -5 3 -10 10 -10 16 0
5 5 9 10 9 6 0 10 -7 10 -16z m1081 -66 c54 -66 57 -78 5 -28 l-46 44 0 -62
c0 -50 4 -65 22 -82 25 -23 38 -19 14 5 -9 9 -16 22 -16 28 0 7 4 6 10 -3 7
-11 12 -12 21 -3 13 13 4 33 -17 33 -8 0 -14 7 -14 15 0 21 8 19 44 -12 35
-32 37 -66 5 -84 -53 -28 -94 36 -83 131 4 33 10 60 13 60 4 0 23 -19 42 -42z
m662 27 c1 -5 -6 -11 -15 -13 -11 -2 -18 3 -18 13 0 17 30 18 33 0z m-1733
-154 c14 -28 12 -35 -5 -21 -12 10 -15 10 -15 -1 0 -18 -25 20 -33 49 -3 12
-1 20 4 16 5 -3 9 19 10 48 l1 53 14 -63 c7 -34 18 -71 24 -81z m546 113 c36
-17 49 -42 40 -79 -9 -37 -34 -55 -76 -55 -80 0 -98 99 -25 138 25 14 21 15
61 -4z m3314 7 c0 -6 -4 -13 -10 -16 -5 -3 -10 1 -10 9 0 9 5 16 10 16 6 0 10
-4 10 -9z m-2135 -12 c4 -6 5 -12 2 -15 -7 -7 -37 7 -37 17 0 13 27 11 35 -2z
m1627 -6 c42 -37 5 -123 -53 -123 -31 0 -69 40 -69 72 0 28 45 68 76 68 15 0
36 -7 46 -17z m-1642 -43 c0 -5 -4 -10 -9 -10 -6 0 -13 5 -16 10 -3 6 1 10 9
10 9 0 16 -4 16 -10z m-2554 -72 l-31 -63 -5 35 c-3 19 -3 47 -1 63 3 23 8 27
35 27 l33 0 -31 -62z m772 39 c13 -10 16 -45 6 -71 -9 -23 -17 -20 -32 12 -11
25 -16 28 -49 24 -21 -3 -41 -10 -45 -16 -5 -6 -8 -2 -8 12 0 12 5 22 10 22 6
0 19 9 30 20 21 21 59 20 88 -3z m3909 -4 c19 -26 16 -64 -9 -90 -29 -31 -71
-30 -97 3 -27 34 -26 54 1 89 18 23 26 26 57 21 20 -3 42 -13 48 -23z m846 19
c-8 -5 -9 -13 -3 -22 12 -19 13 -107 1 -114 -5 -3 -12 13 -15 36 -4 23 -16 57
-27 75 l-21 33 39 0 c21 0 33 -4 26 -8z m-572 -151 c-6 -11 -11 -28 -11 -38 0
-23 -100 -223 -112 -223 -5 0 -7 9 -4 20 3 11 9 30 12 42 6 21 6 21 -11 5 -12
-13 -21 -15 -30 -7 -10 9 -9 21 8 63 11 29 27 84 36 122 16 68 18 70 49 73 33
3 39 -7 26 -42 -7 -18 -25 -12 -20 7 1 7 1 9 -1 4 -3 -4 -9 -5 -14 -1 -14 8
-10 -8 6 -30 20 -27 41 -14 50 31 4 21 10 42 13 48 12 17 14 -53 3 -74z
m-4066 49 c3 -6 -1 -7 -9 -4 -18 7 -21 14 -7 14 6 0 13 -4 16 -10z m-245 -23
c0 -23 30 -130 52 -185 11 -28 10 -34 -1 -41 -9 -6 -21 -3 -33 9 -11 10 -28
16 -40 12 -24 -6 -64 33 -74 73 -5 21 0 32 34 65 22 22 37 42 34 45 -3 3 0 5
7 5 8 0 10 7 6 20 -4 11 -2 20 4 20 6 0 11 -10 11 -23z m870 3 c36 -36 25 -92
-22 -116 -37 -19 -80 -5 -97 32 -16 35 -14 48 10 78 26 33 79 36 109 6z m2570
5 c37 -19 40 -59 9 -99 -41 -52 -109 -22 -109 49 0 24 7 38 22 49 28 20 41 20
78 1z m-3890 -13 c0 -23 -19 -42 -42 -42 -16 0 -16 2 0 30 19 33 42 40 42 12z
m5159 -41 c-7 -2 -18 4 -26 15 -22 30 -15 39 13 13 16 -15 21 -25 13 -28z
m-4779 29 c0 -5 -4 -10 -10 -10 -5 0 -10 5 -10 10 0 6 5 10 10 10 6 0 10 -4
10 -10z m3992 -97 c22 -20 23 -70 1 -95 -35 -39 -113 -6 -113 49 0 52 72 82
112 46z m-2935 -38 c65 -46 10 -154 -66 -130 -57 18 -71 88 -25 124 31 25 61
27 91 6z m2353 -45 c0 -29 -26 -76 -46 -84 -22 -9 -56 3 -51 17 2 7 19 13 38
15 39 4 51 18 44 50 -3 12 -1 22 5 22 5 0 10 -9 10 -20z m-2200 -110 c24 -24
26 -67 4 -98 -20 -29 -83 -31 -109 -2 -42 46 -10 120 52 120 20 0 41 -8 53
-20z m2652 -17 c26 -23 24 -78 -4 -97 -29 -21 -51 -20 -76 2 -31 27 -35 55
-11 85 24 31 63 35 91 10z m-1743 -163 c7 -36 20 -85 28 -110 15 -44 15 -50
-6 -120 -13 -41 -43 -112 -67 -157 -41 -76 -43 -83 -25 -83 30 0 26 -21 -13
-66 -25 -29 -32 -44 -25 -55 5 -8 8 -25 8 -39 -1 -22 -3 -20 -16 13 -21 51
-45 48 -116 -13 -56 -48 -184 -127 -192 -118 -2 2 18 18 45 36 61 40 67 63 7
27 -61 -35 -71 -31 -13 6 27 16 46 32 43 35 -3 3 -18 -2 -34 -12 -15 -10 -2 6
30 35 32 30 56 56 53 58 -2 3 -23 9 -46 14 -38 9 -46 7 -79 -18 -20 -15 -2 7
40 49 76 76 76 76 118 68 29 -5 44 -4 52 6 20 24 39 107 39 169 0 58 2 64 38
102 21 22 46 56 55 76 10 19 22 37 27 39 6 2 14 44 17 93 7 95 8 94 32 -35z
m151 -3 c11 -51 62 -139 104 -178 22 -21 26 -34 29 -105 3 -52 12 -97 25 -127
22 -49 37 -56 85 -38 22 8 30 4 67 -36 46 -50 44 -57 -23 -67 l-40 -7 29 -30
c16 -17 57 -46 92 -66 34 -19 62 -38 62 -43 0 -4 -3 -22 -6 -39 -8 -38 -29
-40 -72 -8 -17 12 -57 41 -89 63 -32 23 -71 56 -87 73 -39 41 -80 42 -95 4
l-11 -28 3 30 c2 18 -4 38 -13 47 -8 9 -23 31 -33 48 -19 31 -19 31 2 37 12 3
21 6 21 7 0 1 -20 41 -45 89 -24 47 -54 118 -66 157 -20 67 -20 74 -6 108 20
46 33 100 44 177 7 55 8 57 11 20 1 -22 7 -62 12 -88z m968 88 c14 -14 -48
-29 -67 -16 -23 15 -2 34 32 27 17 -3 33 -8 35 -11z m-1863 -30 c14 -13 25
-36 25 -50 0 -33 -41 -75 -73 -75 -38 0 -77 36 -77 71 0 37 40 79 75 79 14 0
37 -11 50 -25z m-955 -79 c92 -18 130 -34 209 -86 62 -41 265 -229 257 -237
-4 -4 -49 33 -102 85 -7 6 -17 12 -22 12 -6 0 -32 18 -60 39 -76 60 -124 81
-186 81 -47 0 -57 -4 -75 -26 -12 -15 -21 -36 -21 -48 1 -36 35 -99 83 -152
26 -28 43 -55 39 -59 -4 -5 -2 -5 4 -2 6 4 22 -5 34 -18 13 -14 20 -25 15 -25
-5 0 4 -15 21 -32 l29 -33 -35 31 c-19 16 -71 63 -115 104 -206 188 -383 273
-473 226 -53 -27 -41 -96 17 -96 21 0 23 -2 11 -10 -26 -17 -60 -11 -87 16
-21 21 -24 32 -20 61 13 80 97 152 199 172 69 14 197 12 278 -3z m3805 -1
c106 -27 173 -89 182 -167 5 -40 2 -47 -22 -66 -28 -22 -69 -29 -79 -13 -3 5
7 11 23 14 37 8 48 39 27 72 -55 84 -272 2 -458 -173 -51 -49 -56 -36 -7 16
22 23 37 42 33 42 -9 0 -80 -82 -77 -90 3 -11 -107 -114 -114 -107 -3 4 2 9
11 13 9 3 16 11 16 18 0 6 23 36 51 66 28 30 68 81 89 112 32 49 36 62 31 95
-5 31 -13 41 -41 56 -61 31 -130 10 -247 -77 -34 -25 -65 -41 -68 -36 -9 15 5
32 22 26 8 -3 11 -1 8 4 -3 5 10 24 30 41 l36 32 -29 13 c-44 18 -49 79 -8
106 36 24 96 -6 96 -49 0 -29 0 -29 61 3 119 60 308 81 434 49z m-2691 -6 c49
-23 53 -104 7 -128 -70 -38 -142 41 -96 106 8 12 25 24 38 26 12 2 23 5 24 6
1 0 13 -4 27 -10z m1546 -3 c0 -8 -7 -16 -15 -20 -10 -4 -15 1 -15 14 0 11 7
20 15 20 8 0 15 -6 15 -14z m-1340 -98 c22 -23 29 -85 8 -72 -7 5 -9 2 -5 -9
11 -30 -64 -38 -95 -10 -22 20 -23 70 -1 95 22 25 68 23 93 -4z m1788 -74 c12
-8 22 -21 22 -29 0 -7 6 -16 13 -19 7 -3 -7 -22 -38 -50 -47 -44 -81 -63 -55
-31 11 13 10 18 -8 31 -40 28 -19 114 27 114 9 0 27 -7 39 -16z m-1361 -137
l7 -52 12 53 c7 30 15 56 17 59 7 6 23 -53 33 -114 4 -24 10 -43 14 -43 4 0
10 -12 13 -26 4 -21 1 -25 -14 -21 -23 6 -23 5 -5 -53 7 -25 10 -54 6 -65 -5
-15 -12 -2 -26 53 -10 39 -22 72 -27 72 -5 0 -7 -25 -5 -55 2 -45 0 -55 -14
-59 -15 -3 -18 3 -18 45 0 66 -16 62 -31 -8 -7 -32 -16 -62 -21 -68 -14 -15
-9 60 7 105 19 53 19 50 -7 50 l-23 1 22 12 c15 8 19 17 14 27 -10 18 18 152
30 144 5 -2 12 -28 16 -57z m1175 -24 c33 -29 16 -93 -25 -93 -64 1 -86 24
-65 71 12 28 38 40 38 19 0 -5 5 -10 10 -10 6 0 10 7 10 15 0 19 9 19 32 -2z
m-3103 -18 c85 -15 131 -33 54 -21 -35 5 -41 3 -37 -8 3 -8 20 -17 37 -19 18
-2 4 -5 -30 -5 -33 -1 -90 -11 -125 -22 -58 -18 -67 -18 -113 -5 -27 8 -62 17
-77 20 -23 4 -26 8 -19 28 16 44 156 59 310 32z m4166 -6 c55 -25 41 -44 -52
-67 -77 -19 -86 -20 -120 -5 -20 8 -76 18 -123 23 -47 4 -68 8 -48 9 20 0 40
6 44 13 5 8 -10 10 -57 6 -48 -5 -58 -4 -39 4 89 36 331 46 395 17z m-485 -54
c0 -2 -10 -9 -22 -15 -22 -11 -22 -10 -4 4 21 17 26 19 26 11z m725 -39 c11
-8 16 -15 10 -15 -5 0 -23 11 -40 25 -31 26 -6 18 30 -10z m-4914 4 c-22 -19
-41 -26 -41 -15 0 5 51 34 60 34 3 0 -6 -9 -19 -19z m262 -26 c20 -4 37 -10
37 -14 0 -5 -19 -18 -42 -30 -86 -44 -149 -128 -135 -181 5 -17 -1 -19 -63
-19 -38 0 -81 -5 -97 -11 -16 -6 -29 -6 -31 -1 -6 18 -47 0 -59 -25 -7 -15
-11 -29 -8 -31 3 -3 5 0 5 6 0 7 5 12 11 12 6 0 -5 -19 -24 -42 -47 -58 -77
-120 -98 -198 l-17 -65 -1 101 c-1 56 3 123 8 150 24 123 102 261 143 251 14
-4 18 -1 14 8 -4 11 6 20 34 30 3 1 26 12 53 24 77 36 181 49 270 35z m711
-33 c12 -13 14 -21 7 -21 -7 0 -9 -5 -6 -10 4 -6 11 -7 17 -4 7 4 8 2 4 -5 -5
-8 -16 -6 -36 9 -16 12 -33 26 -36 33 -4 7 2 4 13 -5 33 -30 39 -20 7 13 -21
23 -23 29 -9 21 11 -5 29 -20 39 -31z m3003 24 c0 -8 -3 -13 -5 -10 -3 3 -16
-2 -30 -11 -34 -22 -39 -11 -6 15 32 25 41 26 41 6z m903 -15 c36 -13 72 -29
81 -36 8 -8 19 -14 23 -14 15 0 80 -68 104 -109 14 -24 34 -73 44 -110 23 -81
37 -291 20 -291 -7 0 -12 11 -12 24 0 36 -27 105 -66 168 -19 32 -32 62 -29
68 4 6 -1 7 -11 3 -13 -5 -16 -3 -11 10 4 10 2 16 -5 14 -6 -1 -13 4 -16 12
-3 10 0 12 13 7 13 -5 16 -2 11 10 -6 16 -6 16 42 -3 15 -6 -13 54 -57 122
-14 22 -24 46 -22 54 2 9 -3 12 -14 7 -9 -3 -13 -2 -10 3 3 5 0 13 -7 18 -22
14 -121 32 -181 32 l-58 1 36 -31 c20 -18 42 -51 52 -80 17 -47 19 -49 58 -50
47 0 129 -31 118 -44 -4 -4 0 -5 9 -2 11 4 15 2 12 -7 -3 -8 -17 -11 -37 -9
-18 2 -69 7 -113 10 l-82 5 -5 44 c-6 58 -40 101 -117 146 -62 36 -63 40 -15
52 44 11 182 -3 245 -24z m-920 -13 c0 -2 -10 -12 -22 -23 l-23 -19 19 23 c18
21 26 27 26 19z m-60 -31 c0 -2 -8 -10 -17 -17 -16 -13 -17 -12 -4 4 13 16 21
21 21 13z m-1181 -111 c2 -94 76 -188 176 -222 70 -25 252 -24 270 0 14 19 40
24 29 6 -8 -14 84 -6 181 16 66 14 97 16 89 4 -2 -5 -11 -6 -19 -2 -8 3 -15 0
-15 -6 0 -6 8 -11 17 -11 24 0 -42 -44 -120 -80 -34 -16 -104 -41 -155 -56
-82 -23 -106 -26 -205 -22 -93 4 -121 9 -167 30 -30 14 -62 34 -72 44 -28 33
-57 97 -78 174 l-19 75 4 -55 c2 -30 13 -82 24 -114 12 -33 19 -61 17 -64 -3
-2 -20 13 -38 34 -18 22 -46 52 -61 68 -26 26 -77 115 -77 133 0 4 12 -11 26
-34 25 -44 42 -57 30 -26 -4 10 -4 14 0 11 4 -4 15 -3 25 2 14 8 17 18 12 48
-3 20 -10 45 -14 54 -7 13 -5 16 12 15 17 -1 20 -6 15 -30 -4 -20 -1 -29 10
-34 24 -9 34 15 34 80 l0 59 34 -29 c28 -23 35 -35 35 -68z m-472 -22 c-7
-126 -25 -193 -68 -252 -98 -137 -381 -138 -647 -4 -58 30 -72 41 -68 56 4 15
2 16 -10 6 -16 -13 -19 2 -3 18 7 7 23 8 47 2 100 -24 303 -48 372 -44 130 8
184 28 238 90 43 48 58 81 67 140 7 51 36 95 63 95 13 0 14 -17 9 -107z m60 6
c-7 -25 2 -51 14 -43 5 2 17 0 27 -5 13 -7 22 -7 30 1 20 20 14 -7 -11 -48
-22 -38 -49 -71 -115 -143 -31 -34 -33 -34 -29 -11 9 44 66 245 74 263 8 15
15 6 10 -14z m-367 1 c0 -5 -7 -10 -16 -10 -8 0 -12 5 -9 10 3 6 10 10 16 10
5 0 9 -4 9 -10z m-140 -50 c0 -5 -7 -10 -16 -10 -8 0 -12 5 -9 10 3 6 10 10
16 10 5 0 9 -4 9 -10z m-1885 -30 c-3 -5 -12 -10 -18 -10 -7 0 -6 4 3 10 19
12 23 12 15 0z m2541 -17 c-10 -10 -19 5 -10 18 6 11 8 11 12 0 2 -7 1 -15 -2
-18z m-806 -7 c0 -19 -31 -30 -41 -14 -4 6 -5 16 -3 20 9 14 44 9 44 -6z m58
-80 c3 -11 0 -16 -7 -11 -6 3 -9 10 -6 15 3 4 -5 6 -17 2 -15 -4 -19 -2 -14 7
11 17 40 9 44 -13z m1850 -87 c57 -65 74 -122 70 -224 -5 -95 -23 -145 -82
-224 -15 -20 -26 -48 -26 -66 0 -41 -26 -128 -57 -190 -32 -63 -149 -179 -230
-228 -87 -53 -192 -87 -270 -87 -58 0 -63 2 -63 21 0 51 -26 102 -86 169 -77
85 -94 116 -100 183 -4 41 -2 47 6 29 14 -32 30 -18 30 25 0 29 8 44 44 79 29
29 51 44 67 43 l24 -2 -23 -4 c-13 -3 -41 -23 -63 -45 -34 -35 -39 -46 -39
-87 0 -94 69 -188 169 -235 36 -16 66 -21 136 -21 78 0 98 4 149 28 33 15 80
44 104 64 53 43 118 140 133 197 6 23 14 48 19 56 4 9 11 30 15 48 4 18 15 38
25 45 13 8 16 15 9 23 -6 7 -12 34 -14 61 -2 26 -8 61 -14 76 -6 16 -11 34
-10 40 0 7 4 2 9 -10 13 -31 25 -29 40 8 26 63 6 143 -57 227 -24 32 -24 34
-8 52 17 18 19 19 39 2 12 -9 36 -33 54 -53z m-2127 50 c19 -10 18 -12 -16
-59 -59 -81 -80 -166 -52 -219 15 -31 37 -39 38 -14 0 10 3 13 5 6 3 -7 0 -22
-7 -35 -7 -13 -12 -30 -11 -38 1 -8 -2 -36 -6 -62 -5 -26 -6 -46 -2 -43 3 2
13 -18 20 -45 8 -28 17 -50 22 -50 4 0 8 -11 8 -24 0 -42 67 -160 122 -214 29
-29 82 -67 118 -85 59 -29 73 -32 160 -32 89 0 99 2 158 34 70 38 116 93 133
156 6 22 15 49 19 60 8 19 9 19 9 -2 1 -38 19 -26 24 15 2 25 4 19 5 -23 2
-78 -19 -124 -95 -206 -73 -78 -83 -96 -83 -150 l0 -42 -82 5 c-136 8 -269 73
-388 190 -84 82 -134 178 -152 288 -7 49 -19 84 -33 100 -113 133 -113 322 1
450 49 53 54 56 85 39z m155 -126 c-10 -10 -19 5 -10 18 6 11 8 11 12 0 2 -7
1 -15 -2 -18z m-112 -118 c-9 -14 -18 -25 -21 -25 -5 0 5 18 20 38 17 22 18
13 1 -13z m1971 -26 c9 -17 15 -33 13 -35 -3 -2 -12 12 -21 31 -21 43 -13 47
8 4z m-2002 -34 c-3 -9 -8 -14 -10 -11 -3 3 -2 9 2 15 9 16 15 13 8 -4z m2024
-37 c-3 -8 -6 -5 -6 6 -1 11 2 17 5 13 3 -3 4 -12 1 -19z m-2052 -93 c-4 -25
-10 -44 -12 -41 -3 3 -2 26 2 51 3 26 9 45 12 42 2 -3 1 -26 -2 -52z m2074 18
c7 -24 7 -41 1 -47 -7 -7 -10 -2 -10 15 0 13 -3 34 -6 47 -4 12 -4 22 -1 22 3
0 11 -17 16 -37z m-1393 -99 c18 -14 18 -14 -6 -3 -31 14 -36 19 -24 19 6 0
19 -7 30 -16z m-210 -30 c-11 -7 -22 -12 -25 -9 -2 3 4 12 15 19 10 8 21 12
24 9 3 -2 -4 -11 -14 -19z m208 -8 c20 -18 36 -40 36 -47 0 -8 -9 1 -20 19
-11 17 -21 32 -22 32 -2 0 -21 7 -43 15 -35 12 -37 14 -13 15 17 0 40 -12 62
-34z m931 13 c11 -17 0 -20 -21 -4 -17 13 -17 14 -2 15 9 0 20 -5 23 -11z
m-1083 -31 c-7 -7 -12 -8 -12 -2 0 14 12 26 19 19 2 -3 -1 -11 -7 -17z m806
-3 c-6 -14 -13 -23 -15 -21 -5 5 15 46 22 46 3 0 -1 -11 -7 -25z m-578 -29 c0
-12 -5 -7 -19 24 -11 24 -11 24 3 6 9 -11 16 -24 16 -30z m785 -31 c-16 -26
-73 -27 -89 -3 -8 14 -7 22 7 35 16 16 17 16 17 -9 0 -33 13 -42 40 -28 13 7
20 22 21 43 1 30 1 31 9 7 4 -15 3 -33 -5 -45z m-925 4 c0 -31 -58 -39 -85
-13 -23 23 -9 31 15 9 16 -15 22 -16 35 -5 9 7 14 19 11 26 -2 6 -2 15 2 18 7
8 22 -14 22 -35z"/>
<path d="M2593 6203 c-29 -65 -37 -173 -15 -208 10 -17 11 -10 6 37 -7 61 12
134 42 158 16 14 19 70 3 70 -5 0 -22 -26 -36 -57z"/>
<path d="M4776 6234 c-5 -19 -2 -33 12 -48 11 -11 25 -31 31 -44 13 -24 17
-105 7 -144 -3 -12 1 -7 10 12 21 46 15 119 -16 193 -13 31 -27 57 -31 57 -4
0 -10 -12 -13 -26z"/>
<path d="M4149 5946 c-75 -20 -144 -80 -174 -153 -8 -20 -15 -37 -15 -40 0 -2
22 19 50 47 69 71 151 106 325 136 l40 7 -30 7 c-48 12 -146 10 -196 -4z"/>
<path d="M3065 5952 c-25 -6 -27 -9 -12 -15 10 -4 33 -7 50 -7 91 0 226 -59
302 -131 l56 -52 -20 44 c-50 111 -127 159 -264 165 -45 1 -95 0 -112 -4z"/>
<path d="M3280 5616 c0 -3 9 -10 20 -16 11 -6 20 -8 20 -6 0 3 -9 10 -20 16
-11 6 -20 8 -20 6z"/>
<path d="M3341 5573 c0 -5 17 -21 37 -37 l37 -30 -34 37 c-36 38 -42 42 -40
30z"/>
<path d="M3320 5557 c0 -3 17 -17 38 -33 30 -23 33 -24 17 -5 -19 22 -55 46
-55 38z"/>
<path d="M4049 5523 c-13 -16 -12 -17 4 -4 9 7 17 15 17 17 0 8 -8 3 -21 -13z"/>
<path d="M3600 5337 c0 -17 29 -57 41 -57 10 0 12 30 3 54 -7 19 -44 22 -44 3z"/>
<path d="M2983 5308 c-13 -6 -23 -15 -23 -20 0 -7 31 8 59 29 10 7 -16 1 -36
-9z"/>
<path d="M2403 4968 c1 -7 -4 -12 -11 -10 -8 1 -11 -2 -7 -8 5 -8 11 -8 21 1
7 6 11 15 8 20 -8 13 -14 11 -11 -3z"/>
<path d="M1975 4150 c-3 -5 -1 -10 4 -10 6 0 11 5 11 10 0 6 -2 10 -4 10 -3 0
-8 -4 -11 -10z"/>
<path d="M1945 4093 c-12 -18 -14 -28 -7 -31 23 -7 12 -20 -23 -26 -19 -4 -37
-12 -41 -18 -4 -7 -3 -8 5 -4 7 4 20 4 29 0 35 -15 40 -11 54 42 17 61 9 78
-17 37z"/>
<path d="M1885 3974 c-14 -10 -16 -17 -8 -22 16 -10 35 -62 29 -79 -7 -18 -36
-17 -36 2 0 18 -19 20 -25 3 -7 -19 -22 -168 -17 -173 8 -7 32 7 32 20 0 8 8
11 19 8 21 -5 23 -1 41 121 8 49 8 71 0 76 -13 8 -2 40 14 40 6 0 4 5 -4 10
-19 12 -21 12 -45 -6z"/>
<path d="M1874 3686 c-8 -22 3 -33 18 -18 9 9 9 15 0 24 -9 9 -13 7 -18 -6z"/>
<path d="M2366 2207 c3 -10 9 -15 12 -12 3 3 0 11 -7 18 -10 9 -11 8 -5 -6z"/>
<path d="M3010 1870 c8 -5 20 -10 25 -10 6 0 3 5 -5 10 -8 5 -19 10 -25 10 -5
0 -3 -5 5 -10z"/>
<path d="M3018 1629 c-10 -10 -18 -24 -18 -30 0 -5 -4 -8 -9 -5 -5 3 -11 -1
-15 -9 -7 -18 -7 -18 35 -1 19 7 42 16 53 20 18 6 18 7 1 26 -22 24 -25 24
-47 -1z"/>
<path d="M2188 5459 c-10 -10 -14 -19 -10 -19 5 0 17 9 27 20 10 11 14 20 9
19 -5 0 -17 -9 -26 -20z"/>
<path d="M1990 5275 c-7 -8 -8 -15 -2 -15 5 0 15 7 22 15 7 8 8 15 2 15 -5 0
-15 -7 -22 -15z"/>
<path d="M1989 5037 c8 -10 20 -16 26 -13 8 3 11 -2 8 -15 -6 -23 -4 -23 47
-3 64 26 52 47 -20 34 -31 -6 -50 -5 -60 3 -13 11 -13 10 -1 -6z"/>
<path d="M5190 5474 c8 -8 23 -20 34 -26 18 -10 17 -7 -4 15 -27 28 -51 38
-30 11z"/>
<path d="M5412 5270 c12 -16 26 -30 32 -30 5 0 -3 14 -19 30 -16 17 -30 30
-32 30 -2 0 6 -13 19 -30z"/>
<path d="M4391 5316 c10 -9 69 -36 69 -32 0 6 -55 36 -66 36 -4 0 -5 -2 -3 -4z"/>
<path d="M5420 4175 c0 -17 14 -30 35 -33 l20 -2 -20 11 c-11 7 -23 17 -27 23
-5 7 -8 7 -8 1z"/>
<path d="M5470 4114 c0 -18 24 -44 39 -44 17 0 13 11 -14 36 -19 17 -25 19
-25 8z"/>
<path d="M5485 4038 c3 -15 0 -28 -7 -30 -14 -5 -2 -78 14 -78 6 0 8 -9 5 -20
-8 -32 23 -304 36 -313 9 -6 9 -10 0 -14 -8 -3 -13 -25 -13 -61 0 -37 3 -52 9
-43 5 7 14 10 20 7 6 -4 11 0 12 11 1 12 3 10 9 -7 7 -24 7 -24 14 10 4 19 5
95 3 169 -4 131 -4 134 -30 153 -30 22 -35 46 -12 54 19 8 19 24 0 24 -23 0
-32 50 -11 65 20 15 21 26 2 19 -18 -7 -31 15 -17 29 6 6 11 19 11 30 0 17 -1
17 -17 1 -16 -15 -17 -15 -25 2 -6 14 -7 12 -3 -8z m75 -298 c0 -13 -28 -25
-38 -16 -3 4 0 11 8 16 20 13 30 12 30 0z"/>
<path d="M5688 3573 c6 -2 18 -2 25 0 6 3 1 5 -13 5 -14 0 -19 -2 -12 -5z"/>
<path d="M4996 2165 c-11 -8 -15 -15 -9 -15 6 0 16 7 23 15 16 19 11 19 -14 0z"/>
<path d="M4390 1870 c-9 -6 -10 -10 -3 -10 6 0 15 5 18 10 8 12 4 12 -15 0z"/>
<path d="M2396 5234 c-5 -14 -4 -15 9 -4 17 14 19 20 6 20 -5 0 -12 -7 -15
-16z"/>
<path d="M3180 4635 c0 -8 4 -15 9 -15 5 0 11 7 15 15 3 9 0 15 -9 15 -8 0
-15 -7 -15 -15z"/>
<path d="M3110 4460 c0 -5 5 -10 10 -10 6 0 10 -6 10 -14 0 -9 7 -12 20 -9 23
6 25 14 8 31 -15 15 -48 16 -48 2z"/>
<path d="M2876 4185 c-21 -22 -20 -38 4 -60 21 -19 50 -14 50 9 0 8 6 16 13
19 9 3 9 9 1 23 -15 25 -47 29 -68 9z"/>
<path d="M2910 3996 c0 -8 9 -24 20 -37 21 -26 26 -19 10 12 -8 14 -7 19 2 19
9 0 9 3 -2 10 -21 14 -30 12 -30 -4z"/>
<path d="M3123 3741 c-20 -13 -21 -40 -2 -57 15 -14 25 -16 47 -8 15 5 28 18
30 28 2 10 0 16 -6 12 -5 -3 -12 0 -15 8 -6 15 -40 27 -54 17z m40 -38 c-7 -2
-19 -2 -25 0 -7 3 -2 5 12 5 14 0 19 -2 13 -5z"/>
<path d="M3077 3723 c-15 -15 -5 -41 27 -72 l34 -33 39 18 c26 13 39 27 41 44
3 22 2 23 -10 8 -7 -9 -26 -22 -42 -28 -25 -9 -32 -7 -53 12 -14 13 -22 30
-20 40 5 18 -4 24 -16 11z"/>
<path d="M3062 3354 c-25 -17 -30 -39 -7 -30 8 3 22 9 30 12 8 3 15 1 15 -5 0
-6 -7 -11 -16 -11 -14 0 -14 -3 -4 -15 15 -18 29 -19 54 0 17 13 17 15 -7 39
-30 30 -35 31 -65 10z"/>
<path d="M2957 3312 c-32 -35 -21 -42 53 -37 61 4 71 2 80 -15 15 -29 12 -34
-12 -18 -17 11 -32 12 -56 6 -30 -8 -33 -12 -30 -41 2 -23 11 -37 33 -49 40
-23 66 -23 58 -1 -4 11 -3 14 5 9 7 -4 12 -23 12 -42 0 -28 4 -35 18 -32 9 2
25 19 34 38 10 19 18 31 19 25 0 -5 4 -1 9 10 8 18 9 18 9 2 1 -31 25 -13 36
27 6 20 13 34 17 31 7 -7 -4 -52 -21 -84 -10 -18 -9 -21 7 -21 21 0 57 35 66
66 9 29 -83 114 -123 114 -25 -1 -25 -1 -7 -15 11 -8 22 -15 26 -15 3 0 11
-10 19 -22 l14 -23 -25 23 c-24 22 -58 30 -58 14 0 -5 9 -17 20 -27 11 -10 20
-25 20 -34 0 -11 -4 -9 -16 7 -9 13 -21 21 -27 19 -7 -2 -17 9 -24 24 -14 32
-82 79 -116 79 -13 0 -31 -8 -40 -18z m83 -118 c0 -2 -7 -4 -15 -4 -8 0 -15 4
-15 10 0 5 7 7 15 4 8 -4 15 -8 15 -10z m85 -14 c-4 -12 -9 -19 -12 -17 -3 3
-2 15 2 27 4 12 9 19 12 17 3 -3 2 -15 -2 -27z"/>
<path d="M2865 3254 c-14 -15 -25 -30 -25 -35 0 -19 14 -39 27 -39 9 0 13 6 9
15 -3 8 -1 15 3 15 5 0 11 -7 15 -15 9 -25 23 -17 23 15 0 17 -5 30 -11 30 -6
0 -5 4 3 9 14 9 7 31 -10 31 -6 0 -21 -12 -34 -26z"/>
<path d="M2937 3253 c-14 -13 -6 -61 14 -87 l21 -27 -27 7 c-18 4 -30 2 -37
-7 -7 -10 -7 -8 -3 9 5 16 2 22 -9 22 -20 0 -42 -36 -49 -80 -4 -31 -1 -38 21
-53 15 -9 40 -26 55 -39 21 -17 32 -20 44 -12 27 17 27 34 0 34 -30 0 -77 35
-77 58 0 13 3 12 16 -6 19 -27 51 -45 65 -36 7 4 3 14 -10 28 -11 11 -23 35
-26 51 l-7 30 19 -30 c11 -16 28 -37 39 -45 15 -11 16 -11 7 0 -22 24 -14 35
10 13 34 -31 45 -35 67 -23 35 19 25 49 -23 70 -67 30 -103 84 -77 115 10 12
9 15 -7 15 -11 0 -23 -3 -26 -7z"/>
<path d="M3124 3065 c-31 -29 -43 -35 -66 -30 -22 5 -27 3 -22 -8 3 -8 16 -20
30 -28 33 -17 51 -5 81 51 13 24 23 36 23 27 0 -17 -59 -98 -76 -104 -6 -2
-27 8 -47 21 -28 19 -37 22 -37 11 0 -26 38 -55 73 -55 49 0 107 67 107 124 0
36 -21 33 -66 -9z"/>
<path d="M2870 2746 c0 -2 7 -6 15 -10 8 -3 15 -1 15 4 0 6 -7 10 -15 10 -8 0
-15 -2 -15 -4z"/>
<path d="M2832 2729 c2 -7 10 -15 17 -17 8 -3 12 1 9 9 -2 7 -10 15 -17 17 -8
3 -12 -1 -9 -9z"/>
<path d="M3215 3930 c20 -23 29 -21 19 4 -3 9 -13 16 -22 16 -13 0 -12 -3 3
-20z"/>
<path d="M3186 3915 c4 -8 12 -15 20 -15 19 0 18 16 -2 24 -22 9 -24 8 -18 -9z"/>
<path d="M1760 2841 c0 -5 5 -13 10 -16 6 -3 10 -2 10 4 0 5 -4 13 -10 16 -5
3 -10 2 -10 -4z"/>
<path d="M5841 2644 c0 -11 3 -14 6 -6 3 7 2 16 -1 19 -3 4 -6 -2 -5 -13z"/>
<path d="M4959 2743 c-6 -44 -6 -74 2 -62 5 8 6 23 3 33 -5 15 -3 18 11 12 15
-5 16 -4 5 9 -14 17 -19 19 -21 8z"/>
<path d="M3532 1899 c-12 -38 -25 -77 -28 -86 -5 -15 -4 -16 5 -3 13 18 55
149 49 155 -2 2 -14 -27 -26 -66z"/>
<path d="M3851 1974 c-1 -18 38 -136 54 -164 17 -30 20 -8 3 23 -6 12 -22 51
-34 87 -13 36 -23 60 -23 54z"/>
<path d="M4039 1676 c12 -14 12 -19 2 -25 -8 -5 0 -19 29 -44 22 -21 46 -37
53 -37 6 0 -4 14 -23 30 -19 16 -30 30 -23 30 6 0 15 -4 18 -10 6 -10 45 -34
45 -27 0 2 -26 25 -57 52 -32 27 -52 41 -44 31z m31 -36 c0 -5 -2 -10 -4 -10
-3 0 -8 5 -11 10 -3 6 -1 10 4 10 6 0 11 -4 11 -10z"/>
<path d="M2110 2151 c0 -4 35 -30 78 -56 84 -52 73 -28 -14 30 -55 37 -64 40
-64 26z"/>
<path d="M1996 1918 c10 -14 21 -24 23 -22 3 3 -6 15 -18 27 l-24 22 19 -27z"/>
<path d="M5367 2193 c-9 -2 -15 -9 -12 -14 3 -5 -1 -6 -9 -3 -8 3 -29 -2 -48
-12 -42 -21 -161 -115 -154 -121 3 -3 22 8 43 24 70 55 123 77 190 77 37 1 56
4 47 9 -8 5 -12 13 -8 19 4 7 -2 8 -17 3 -23 -7 -24 -7 -4 9 21 16 11 19 -28
9z"/>
<path d="M1283 1710 c-18 -4 -44 -15 -58 -24 -14 -9 -25 -12 -25 -6 0 6 -5 8
-11 5 -6 -4 -8 -10 -5 -13 11 -10 -26 -41 -42 -35 -13 4 -14 3 -4 -5 11 -7 6
-23 -24 -76 -20 -37 -34 -69 -31 -72 6 -6 48 16 58 30 4 5 12 5 19 1 7 -4 16
-2 21 6 4 8 12 14 16 15 4 0 21 6 36 12 16 7 43 12 61 12 30 0 34 4 55 55 13
30 36 66 53 80 l30 25 -59 -1 c-32 -1 -73 -4 -90 -9z"/>
<path d="M1190 1520 c0 -5 5 -10 11 -10 5 0 7 5 4 10 -3 6 -8 10 -11 10 -2 0
-4 -4 -4 -10z"/>
<path d="M6206 1515 c4 -8 10 -12 15 -9 11 6 2 24 -11 24 -5 0 -7 -7 -4 -15z"/>
<path d="M3965 1420 c13 -46 67 -116 111 -144 54 -34 156 -52 239 -41 68 8 56
18 -37 29 -113 14 -199 56 -271 130 -40 41 -48 46 -42 26z"/>
<path d="M3412 1400 c-52 -60 -159 -116 -252 -131 -125 -20 -133 -25 -58 -34
167 -19 286 39 339 163 11 25 18 46 16 48 -1 2 -22 -19 -45 -46z"/>
<path d="M4828 1151 c5 -74 -1 -101 -32 -138 -17 -20 -23 -36 -19 -56 8 -39
18 -34 43 26 29 68 37 164 18 201 -14 26 -14 25 -10 -33z"/>
<path d="M2570 1166 c-9 -34 -9 -56 -1 -97 15 -69 48 -142 61 -134 16 10 11
50 -10 74 -30 35 -43 88 -37 147 3 30 4 54 3 54 -2 0 -9 -20 -16 -44z"/>
</g>
</svg>
